<svg width="256" height="256" viewBox="0 0 512 512" fill="none" xmlns="http://www.w3.org/2000/svg">
    <rect width="512" height="512" fill="url(#paint0_radial_2_236)"/>
    <path d="M391 451C424.137 451 451 424.137 451 391V313.514C451 295.557 436.443 281 418.486 281C406.795 281 396.495 288 387.348 295.28C378.916 301.99 368.239 306 356.625 306C329.356 306 307.25 283.894 307.25 256.625C307.25 229.356 329.356 207.25 356.625 207.25C367.769 207.25 378.05 210.942 386.313 217.169C395.622 224.184 405.953 231 417.609 231C436.05 231 451 216.05 451 197.609V121C451 87.8629 424.137 61 391 61H313.591C295.591 61 281 75.5913 281 93.5905C281 104.967 287.63 115.056 294.559 124.079C300.951 132.402 304.75 142.82 304.75 154.125C304.75 181.394 282.644 203.5 255.375 203.5C228.106 203.5 206 181.394 206 154.125C206 142.346 210.125 131.531 217.008 123.044C224.194 114.185 231 104.131 231 92.7236C231 75.2031 216.797 61 199.276 61H121C87.8629 61 61 87.8629 61 121V197.425C61 215.622 75.751 230.373 93.9474 230.373C105.622 230.373 115.938 223.465 125.167 216.316C133.517 209.849 143.996 206 155.375 206C182.644 206 204.75 228.106 204.75 255.375C204.75 282.644 182.644 304.75 155.375 304.75C143.995 304.75 133.513 300.9 125.163 294.431C115.934 287.281 105.618 280.373 93.944 280.373C75.7495 280.373 61 295.122 61 313.317V391C61 424.137 87.8629 451 121 451H198.486C216.443 451 231 436.443 231 418.486C231 406.795 224 396.495 216.72 387.348C210.01 378.916 206 368.239 206 356.625C206 329.356 228.106 307.25 255.375 307.25C282.644 307.25 304.75 329.356 304.75 356.625C304.75 367.769 301.058 378.05 294.831 386.313C287.816 395.622 281 405.953 281 417.609C281 436.05 295.95 451 314.391 451H391Z" fill="url(#paint1_radial_2_236)"/>
    <defs>
        <radialGradient id="paint0_radial_2_236" cx="0" cy="0" r="1" gradientUnits="userSpaceOnUse" gradientTransform="translate(441.5 55) rotate(131.039) scale(624.453)">
            <stop stop-color="#E3A8A8" stop-opacity="0.6"/>
            <stop offset="1" stop-color="#A3A3A3" stop-opacity="0.5"/>
        </radialGradient>
        <radialGradient id="paint1_radial_2_236" cx="0" cy="0" r="1" gradientUnits="userSpaceOnUse" gradientTransform="translate(154.75 38.5) rotate(54.7508) scale(490.571 331.819)">
            <stop stop-color="#FF5252"/>
            <stop offset="1" stop-color="#302D2D"/>
        </radialGradient>
    </defs>
</svg>